<?xml version="1.0" encoding="UTF-8"?>
<svg xmlns="http://www.w3.org/2000/svg" version="1.1" xmlns:xodm="http://www.corel.com/coreldraw/odm/2003" viewBox="0 0 652.01 652.04">
  <!-- Generator: Adobe Illustrator 29.5.1, SVG Export Plug-In . SVG Version: 2.1.0 Build 141)  -->
  <defs>
    <style>
      .st0 {
        fill: #fff;
      }

      .st1 {
        fill: #f7931a;
      }
    </style>
  </defs>
  <g id="bitcoin" image-rendering="optimizeQuality" shape-rendering="geometricPrecision" text-rendering="geometricPrecision">
    <g>
      <g>
        <path class="st1" d="M326.21,637.86c-25.37,0-50.82-3.14-75.66-9.33-80.78-20.14-148.88-70.55-191.77-141.93C15.9,415.21,3.38,331.4,23.53,250.61c8.64-34.66,22.93-67.21,42.48-96.74,18.89-28.54,42.27-53.65,69.49-74.64C189.9,37.28,257.47,14.17,325.78,14.17c25.36,0,50.8,3.14,75.62,9.33,80.8,20.14,148.92,70.55,191.81,141.95,42.85,71.31,55.39,155.03,35.33,235.76-.02.08-.04.17-.06.25-8.64,34.66-22.93,67.21-42.48,96.73-18.89,28.54-42.28,53.64-69.49,74.63-54.41,41.95-121.99,65.05-190.3,65.05Z"/>
        <path class="st0" d="M325.78,28.35c23.83,0,48.03,2.88,72.19,8.91,159.48,39.76,256.52,201.3,216.76,360.77h0s0,0,0,0c-33.73,135.29-155.11,225.66-288.53,225.66-23.84,0-48.05-2.88-72.23-8.91C94.56,575.02-2.49,413.5,37.28,254.04,71,118.72,192.38,28.35,325.78,28.35M325.78,0c-36.06,0-71.68,5.98-105.86,17.79-33.59,11.6-64.9,28.49-93.08,50.21-28.45,21.94-52.9,48.2-72.65,78.04-20.44,30.88-35.38,64.91-44.41,101.14C-.87,289.86-2.83,333.36,3.94,376.48c6.54,41.63,20.9,81.14,42.69,117.41,21.79,36.28,49.92,67.51,83.6,92.83,34.89,26.23,74.21,44.92,116.88,55.56,25.96,6.47,52.57,9.75,79.09,9.75,36.06,0,71.68-5.98,105.87-17.79,33.59-11.6,64.91-28.49,93.08-50.21,28.46-21.94,52.9-48.19,72.66-78.03,20.44-30.87,35.39-64.9,44.42-101.13.04-.15.07-.3.11-.46,10.54-42.53,12.46-85.89,5.72-128.86-6.54-41.64-20.91-81.14-42.7-117.42-21.8-36.28-49.93-67.51-83.62-92.84-34.89-26.23-74.23-44.92-116.91-55.56-25.94-6.47-52.54-9.75-79.05-9.75h0Z"/>
      </g>
      <path class="st0" d="M457.26,283.61c5.92-39.61-24.23-60.91-65.47-75.11l13.38-53.66-32.66-8.14-13.02,52.25c-8.59-2.14-17.41-4.16-26.17-6.16l13.12-52.59-32.64-8.14-13.39,53.64c-7.11-1.62-14.09-3.22-20.86-4.9l.04-.17-45.05-11.25-8.69,34.89s24.23,5.56,23.72,5.9c13.23,3.3,15.62,12.06,15.22,19l-15.24,61.13c.91.23,2.09.57,3.4,1.09-1.09-.27-2.25-.57-3.45-.85l-21.36,85.64c-1.62,4.02-5.72,10.05-14.97,7.76.33.47-23.74-5.92-23.74-5.92l-16.22,37.39,42.51,10.6c7.91,1.98,15.66,4.06,23.29,6.01l-13.52,54.28,32.63,8.14,13.39-53.7c8.91,2.42,17.56,4.65,26.03,6.76l-13.34,53.45,32.67,8.14,13.52-54.17c55.7,10.54,97.58,6.29,115.21-44.09,14.21-40.56-.71-63.96-30.01-79.22,21.34-4.92,37.42-18.96,41.71-47.96h-.01s0,0,0,0ZM382.63,388.26c-10.09,40.56-78.39,18.64-100.53,13.14l17.94-71.91c22.14,5.53,93.14,16.47,82.6,58.77h0ZM392.74,283.02c-9.21,36.9-66.05,18.15-84.49,13.55l16.26-65.21c18.44,4.6,77.82,13.17,68.23,51.66h0Z"/>
    </g>
  </g>
</svg>