<?xml version="1.0" encoding="UTF-8"?>
<svg id="Arte" xmlns="http://www.w3.org/2000/svg" version="1.1" xmlns:xlink="http://www.w3.org/1999/xlink" viewBox="0 0 1572.9 531">
  <!-- Generator: Adobe Illustrator 29.3.1, SVG Export Plug-In . SVG Version: 2.1.0 Build 151)  -->
  <defs>
    <style>
      .st0 {
        fill: url(#linear-gradient2);
      }

      .st1 {
        fill: #fff;
      }

      .st2 {
        fill: url(#linear-gradient1);
      }

      .st3 {
        fill: #1a2e59;
      }

      .st4 {
        fill: url(#linear-gradient);
      }
    </style>
    <linearGradient id="linear-gradient" x1="1262.6" y1="319.2" x2="1391.1" y2="319.2" gradientTransform="translate(0 -153.3)" gradientUnits="userSpaceOnUse">
      <stop offset="0" stop-color="#52abd5"/>
      <stop offset="0" stop-color="#4ec4e9"/>
      <stop offset=".4" stop-color="#57c1cc"/>
      <stop offset=".8" stop-color="#5dbfba"/>
      <stop offset="1" stop-color="#5fbeb4"/>
    </linearGradient>
    <linearGradient id="linear-gradient1" x1="1422" y1="288.1" x2="1293.6" y2="288.8" gradientTransform="translate(0 -153.3)" gradientUnits="userSpaceOnUse">
      <stop offset="0" stop-color="#52abd5"/>
      <stop offset="0" stop-color="#4ec4e9"/>
      <stop offset=".4" stop-color="#57c1cc"/>
      <stop offset=".8" stop-color="#5dbfba"/>
      <stop offset="1" stop-color="#5fbeb4"/>
    </linearGradient>
    <linearGradient id="linear-gradient2" x1="16510.3" y1="303.9" x2="17197.7" y2="303.9" gradientTransform="translate(0 -153.3)" gradientUnits="userSpaceOnUse">
      <stop offset="0" stop-color="#52abd5"/>
      <stop offset="0" stop-color="#4ec4e9"/>
      <stop offset=".4" stop-color="#57c1cc"/>
      <stop offset=".8" stop-color="#5dbfba"/>
      <stop offset="1" stop-color="#5fbeb4"/>
    </linearGradient>
  </defs>
  <rect class="st1" width="1572.9" height="531" rx="70.9" ry="70.9"/>
  <g>
    <g>
      <path class="st3" d="M756.4,460.2c-13.3,0-19.7-4.3-19-13v-246.6c-1-8.7,5.3-13,18.6-13s19.9,4,19.6,12.1v17.7c6.2-10,15.1-18.2,25.6-23.5,10.5-5.4,22.3-7.8,34.1-7,25.6.8,45.8,10.8,60.4,29.9,14.7,19.1,21.6,42.4,20.9,69.7-.7,27.3-8.6,49.8-23.7,67.5-15,17.7-35.1,26.9-60.2,27.6-25.1.7-44-7.2-56.6-23.5v88.9c0,8.7-6.5,13.1-19.9,13.1h.2ZM807.1,339c6.8,3.1,14.2,4.6,21.6,4.6s14.8-1.6,21.7-4.6c6.6-3.1,12.4-7.7,16.9-13.5s7.5-12.6,8.7-19.7c3.7-15,3.7-30.8,0-45.8-1.7-7.1-5.2-13.6-10.2-18.9-5-5.3-11.3-9.2-18.3-11.3-14.4-5.5-30.4-5-44.5,1.3-6.9,2.9-13,7.6-17.5,13.5-4.6,5.9-7.5,13-8.6,20.4v47c4.8,11.8,14.9,20.8,30.2,26.9h0Z"/>
      <path class="st3" d="M955.4,132.2c0-3.3.7-6.5,2-9.5s3.1-5.7,5.4-8c2.2-2.5,4.9-4.4,7.9-5.8,3-1.3,6.3-2,9.6-2s6.1.5,9,1.8c2.8,1.2,5.4,3,7.5,5.3,4.4,5.1,6.7,11.7,6.7,18.4s-2.6,13.2-7,18.2c-2.1,2.3-4.7,4.1-7.6,5.4-2.9,1.2-6,1.9-9.1,1.9s-6.5-.6-9.4-2c-3-1.3-5.6-3.3-7.7-5.8-4.6-4.8-7.1-11.2-7.1-17.9h-.2ZM979.6,187.6c-13.6,0-20.2,4.4-20,12.8v165.8c-.5,9.6,6.4,14.4,20.6,14.2,14.2,0,20.5-4.9,19.1-14.2v-165.8c.5-8.7-6-12.9-19.7-12.8h0Z"/>
      <path class="st3" d="M1168.9,197.6c9-11.8,18.2-13.9,27.6-6.1,9.5,7.7,10.7,16.7,3.8,27.1l-57,61,59.2,66.4c8.7,8.4,7.5,17.1-3.4,26s-19.7,8.9-26.1,0l-52.4-61.4-52.3,62.8c-7.4,8.1-16.1,7.4-26-2s-10.1-18.2-.7-26.5l54.1-62.4-50.9-61.7c-8.1-10.1-7.3-19.2,2.3-27.2,9.6-8.1,19.8-7.2,30.5,2.7l43.7,54.1,47.6-52.7h0Z"/>
      <path class="st3" d="M198.3,373.1c-3.9-.1-7.7-.9-11.3-2.4-24.7-10.8-36.7-28.1-36.4-52.9l.4-192.4v-.3c-.4-1.6-.4-3.2,0-4.8.3-1.6,1-3.1,1.9-4.5,3.3-2.5,7.5-3.7,11.6-3.4h.7c6.1,0,10.3,1.4,12.1,3.7.8,1.3,1.4,2.7,1.6,4.2s0,3-.2,4.5v.4l-.4,181.2c1.7,26.4,15.2,36,26.6,39.3,11.2,7.1,9.7,13.5,6.3,19.3-1.1,2.4-3,4.4-5.2,5.9-2.3,1.4-4.9,2.1-7.6,2.1h0Z"/>
      <path class="st3" d="M276.5,374.5c-6.3,0-10.9-1.1-12.8-3.2-.6-.7-1-1.5-1.2-2.3-.2-.9-.3-1.8-.1-2.6v-165.8c-.1-.7,0-1.4.1-2s.5-1.2,1-1.8c1.1-1.2,4.3-3.1,13.1-3.2,8.8,0,11.7,1.8,12.7,2.9.4.5.8,1.1,1,1.7.2.6.2,1.3,0,2v166.7c.5,3-.4,4-.7,4.4-.3.3-3.6,3.1-12.7,3.2h-.4ZM276.3,152.1c-2.4,0-4.8-.5-7.1-1.5-2.2-1-4.2-2.5-5.8-4.4-3.6-3.8-5.6-8.8-5.5-13.9,0-2.5.5-5,1.5-7.3s2.4-4.4,4.2-6.2c1.7-1.9,3.7-3.4,6-4.4s4.8-1.5,7.3-1.5,4.5.4,6.6,1.3,4,2.2,5.5,3.9c3.3,4,5.1,9.1,5.1,14.3s-2,10.3-5.4,14.2c-1.6,1.7-3.6,3.1-5.8,4s-4.5,1.4-6.9,1.3h.1l.2.2h0Z"/>
      <path class="st3" d="M410,372.5c-8.1,0-13.1-2.6-16.2-8.1l-61-154.9c-.6-2.7-1.3-7.8,10.6-11.4,2.5-.8,5.1-1.3,7.8-1.4,1.7-.2,3.4.2,4.8,1.2,1.4.9,2.5,2.4,3,4l51.3,133.4,57.7-133.7c.7-1.6,1.9-3,3.5-3.9,1.5-.9,3.3-1.3,5.1-1.1,2.5,0,5,.5,7.4,1.2,3.2.6,6.1,2.4,8.1,5,.5,1.3.7,2.6.6,3.9,0,1.3-.4,2.7-.9,3.9l-65.4,154.2c-1.9,3.2-5.8,7.6-16.2,7.6h-.2,0Z"/>
      <path class="st3" d="M613.5,376.8h-8.1c-20.5-1-39.9-9.3-54.8-23.4-16.2-14.6-25.1-35.9-26-63.5-.9-27.5,6.6-51.3,22.5-70.2,7.2-9,16.3-16.3,26.7-21.3,10.4-5,21.8-7.6,33.3-7.6h3.2c23.1,0,42.3,6,57,17.9s23.3,35,24.3,68c-.2,8.8-3.7,13.9-11.5,16h-128l.5,6.3c.5,7.4,2.6,14.6,6.1,21.1s8.4,12.2,14.3,16.7c12.7,9.6,28.3,14.5,44.2,14.1,8.5.1,16.9-1.6,24.7-5.1,7.7-3.5,14.6-8.7,20.1-15.1l.2-.3.2-.3c3.8-5.4,7.1-6,9.3-6,3,.2,5.9,1.1,8.4,2.8,1.3.6,2.4,1.4,3.3,2.4.9,1,1.6,2.3,2,3.6.9,3.7-.7,9-4.8,15.4-7.7,9.5-17.5,17.2-28.6,22.5-12.3,4.7-25.5,6.8-38.7,6.1h.2,0ZM611.7,212.8c-8.5,0-16.9,1.6-24.9,4.5-17.7,6.3-28.8,21.3-33,44.5l-1.3,6.9h112.7l-.7-6.4c-2.4-23.4-12.1-38.6-28.6-44.9-7.7-3-15.9-4.5-24.2-4.5h0Z"/>
    </g>
    <g>
      <path class="st4" d="M1324.9,230.2c-16.5,0-32.3-6.6-44-18.3s-18.2-27.5-18.3-44v-58.2c0-2.6,0-8.1,13.2-8.1s13.2,5.3,13.2,8.1v58.2c0,9.5,3.8,18.6,10.5,25.3s15.8,10.5,25.3,10.5h58.2c2.6,0,8.1,0,8.1,13.2s-5.4,13.2-8.1,13.2h-58.2.1Z"/>
      <path class="st2" d="M1359.4,70.9c16.5,0,32.4,6.4,44.1,18s18.4,27.4,18.5,43.9l.3,58.1c0,2.6,0,8.1-13.1,8.1s-13.2-5.2-13.2-8.1l-.3-58.1c0-9.5-3.9-18.6-10.6-25.2-6.7-6.7-15.8-10.4-25.3-10.4l-58.2.3c-2.6,0-8.1,0-8.1-13.1s5.3-13.2,8.1-13.2l57.9-.2h-.1Z"/>
      <path class="st0" d="M1364.9,124.2h-45.2c-2.1,0-3.8,1.7-3.8,3.8v45.2c0,2.1,1.7,3.8,3.8,3.8h45.2c2.1,0,3.8-1.7,3.8-3.8v-45.2c0-2.1-1.7-3.8-3.8-3.8Z"/>
    </g>
  </g>
</svg>